<svg width="26" height="27" viewBox="0 0 26 27" fill="none" xmlns="http://www.w3.org/2000/svg">
<path d="M10.673 6.23167L13.1008 5.87498C14.0448 5.73629 14.7664 4.96141 14.8376 4.00987L15.0995 0.511206C15.1276 0.135843 14.7287 -0.121448 14.3983 0.0589032L12.1802 1.26984C11.4222 1.6837 10.8896 2.41555 10.7289 3.26415L10.2505 5.79134C10.2026 6.04436 10.4183 6.26911 10.673 6.23167Z" fill="#FFE07D"/>
<path d="M14.3984 0.0589043L13.3432 0.634975L13.0939 3.96531C13.0226 4.91685 12.3011 5.69167 11.357 5.83042L10.2675 5.99052C10.3262 6.14878 10.4892 6.25867 10.6731 6.23162L13.1009 5.87487C14.0449 5.73618 14.7665 4.9613 14.8377 4.00976L15.0996 0.511102C15.1276 0.135844 14.7288 -0.121447 14.3984 0.0589043Z" fill="#FFD064"/>
<path d="M6.30113 15.9549L7.89956 15.6186C8.24914 15.6588 8.47727 16.0055 8.37586 16.3424L7.94708 17.7674L11.938 23.3514H14.5917L24.6247 21.3855L18.9392 9.97887C18.0921 8.2794 17.092 6.66061 15.9512 5.1426C14.2123 2.5342 10.691 1.82403 8.07696 3.55451L6.3835 4.67559C5.68066 5.14086 5.22103 5.89454 5.12906 6.73244L4.97681 8.11993C4.92244 8.61574 4.58231 9.03355 4.10786 9.18749L1.04599 10.1807L0.419403 12.6554L0.601495 13.0342C1.1542 14.1842 2.25836 14.9702 3.52599 15.1159L4.588 15.238C4.63409 15.2433 4.67654 15.2674 4.70244 15.3059C5.05191 15.8257 5.68366 16.0848 6.30113 15.9549Z" fill="#FFD064"/>
<path d="M18.9392 9.97887C18.0921 8.2794 17.0919 6.66061 15.9512 5.1426C14.4634 2.91094 11.671 2.06903 9.2583 2.95613C10.355 3.35675 11.3386 4.09699 12.0357 5.1426C13.1765 6.66061 14.1766 8.2794 15.0236 9.97887L21.443 22.8577L24.6247 21.3855L18.9392 9.97887Z" fill="#FFC250"/>
<path d="M19.1085 13.383L19.153 12.7946C19.2201 11.905 18.8537 11.0378 18.169 10.466L16.1503 8.78022C15.909 8.57872 15.5474 8.78686 15.6005 9.09673L16.0705 11.8414C16.11 12.0721 16.2459 12.2749 16.4443 12.3991L18.5034 13.6888C18.7559 13.847 19.086 13.6801 19.1085 13.383Z" fill="#4A80AA"/>
<path d="M18.169 10.466L16.1503 8.78027C15.909 8.57877 15.5474 8.78692 15.6005 9.09678L15.7463 9.9486L16.5334 10.6059C17.2181 11.1777 17.5846 12.0449 17.5173 12.9345L17.5075 13.0652L18.5033 13.6888C18.7559 13.847 19.086 13.6801 19.1085 13.383L19.153 12.7946C19.2201 11.905 18.8537 11.0378 18.169 10.466Z" fill="#407093"/>
<path d="M12.8223 17.6197C13.1182 17.9167 13.481 18.1382 13.8804 18.2656C13.9356 18.2832 13.9798 18.3249 14.0004 18.3791L14.1712 18.8268C14.2894 19.1368 14.6066 19.3357 14.9339 19.2818C14.9505 19.2791 14.967 19.2758 14.9834 19.2719L15.885 19.0621C16.2488 18.9774 16.5197 19.3935 16.295 19.6919L15.3642 20.9284C14.8358 21.6303 14.568 22.4858 14.5917 23.3513H25.597C25.7805 23.3513 25.9117 23.1728 25.8553 22.9983C25.7404 22.6426 25.654 22.278 25.5977 21.9077L25.1054 18.67C24.9138 17.4099 24.3804 16.2265 23.5631 15.2484L21.434 12.7002C20.7276 11.8547 19.7517 11.2779 18.6702 11.0667L18.5569 11.0446C17.1431 10.7685 15.6801 11.1419 14.5716 12.0618L14.0942 12.4579C13.4039 13.0307 13.0916 13.9411 13.285 14.8169L13.4426 15.5308L12.524 16.5422L12.5595 17.3557L12.8223 17.6197Z" fill="#407093"/>
<path d="M7.14625 10.1504C7.53191 10.1504 7.84455 9.83772 7.84455 9.45205C7.84455 9.06639 7.53191 8.75375 7.14625 8.75375C6.76058 8.75375 6.44794 9.06639 6.44794 9.45205C6.44794 9.83772 6.76058 10.1504 7.14625 10.1504Z" fill="#707DD3"/>
<path d="M0.131206 12.0555L0.419452 12.6553L0.570958 12.252C0.668833 11.9916 0.92201 11.8226 1.20008 11.8322L1.91574 11.8569C2.2023 11.8668 2.35459 11.5222 2.15436 11.317L1.04599 10.1806L0.915946 10.2228C0.15346 10.4701 -0.21605 11.333 0.131206 12.0555Z" fill="#407093"/>
<path d="M2.15437 11.317L1.046 10.1806L0.91596 10.2228C0.661464 10.3054 0.451054 10.4568 0.296173 10.6483L1.22214 11.5977C1.29117 11.6684 1.32555 11.7525 1.33314 11.8368L1.91575 11.8569C2.20231 11.8668 2.35461 11.5222 2.15437 11.317Z" fill="#365E7D"/>
<path d="M4.20666 12.9745C4.45958 12.9745 4.66461 12.7694 4.66461 12.5165C4.66461 12.2636 4.45958 12.0586 4.20666 12.0586C3.95375 12.0586 3.74872 12.2636 3.74872 12.5165C3.74872 12.7694 3.95375 12.9745 4.20666 12.9745Z" fill="#FFC250"/>
<path d="M5.97665 12.9745C6.22957 12.9745 6.4346 12.7694 6.4346 12.5165C6.4346 12.2636 6.22957 12.0586 5.97665 12.0586C5.72374 12.0586 5.51871 12.2636 5.51871 12.5165C5.51871 12.7694 5.72374 12.9745 5.97665 12.9745Z" fill="#FFC250"/>
<path d="M5.23236 14.2459C5.48528 14.2459 5.6903 14.0408 5.6903 13.7879C5.6903 13.535 5.48528 13.33 5.23236 13.33C4.97944 13.33 4.77441 13.535 4.77441 13.7879C4.77441 14.0408 4.97944 14.2459 5.23236 14.2459Z" fill="#FFC250"/>
<path d="M15.4443 16.1798C15.8027 16.1798 16.0933 15.8892 16.0933 15.5308C16.0933 15.1724 15.8027 14.8818 15.4443 14.8818C15.0858 14.8818 14.7953 15.1724 14.7953 15.5308C14.7953 15.8892 15.0858 16.1798 15.4443 16.1798Z" fill="#95D6A4"/>
<path d="M13.0777 16.5013L12.524 16.5423L12.4674 16.6047C12.3105 16.7773 12.2951 17.0359 12.4301 17.226L12.5594 17.3558L13.1378 17.3129C13.362 17.2962 13.5302 17.1011 13.5136 16.8769C13.497 16.6529 13.3022 16.4852 13.0777 16.5013Z" fill="#E28086"/>
<path d="M12.6837 6.65149L13.7344 6.7028L15.4886 6.47478C15.4886 6.47478 16.2889 6.5688 16.686 6.16649C16.9242 5.92513 17.1044 5.62227 17.1996 5.27739L18.1335 1.89554C18.2337 1.53272 17.8921 1.20313 17.5331 1.31614L15.1225 2.07504C14.2987 2.33439 13.6345 2.94943 13.3128 3.75089L12.3545 6.1378C12.2585 6.37669 12.4266 6.63894 12.6837 6.65149Z" fill="#FFE07D"/>
<path d="M17.533 1.31614L16.1192 1.76127C16.1197 1.80499 16.1141 1.84997 16.1015 1.89554L15.1677 5.27739C14.9717 5.9872 14.4159 6.5185 13.7344 6.7028L15.1347 6.7712C16.0878 6.81776 16.9456 6.19713 17.1996 5.27739L18.1334 1.89554C18.2336 1.53272 17.892 1.20308 17.533 1.31614Z" fill="#FFD064"/>
<path d="M16.214 11.9067L16.3273 11.9288C17.4088 12.14 18.3846 12.7168 19.0912 13.5623L21.2203 16.1105C22.0376 17.0886 22.571 18.2721 22.7626 19.5322L23.2549 22.7699C23.2846 22.9655 23.3235 23.1594 23.3697 23.3515H25.5971C25.7806 23.3515 25.9118 23.173 25.8554 22.9984C25.7405 22.6427 25.6541 22.2781 25.5977 21.9079L25.1055 18.6702C24.9139 17.4101 24.3804 16.2266 23.5632 15.2485L21.434 12.7003C20.7276 11.8548 19.7517 11.278 18.6702 11.0668L18.557 11.0447C17.2647 10.7924 15.9315 11.083 14.8652 11.8372C15.3112 11.7971 15.765 11.819 16.214 11.9067Z" fill="#365E7D"/>
<path d="M20.5116 13.2973C20.5116 13.2973 21.0978 12.7126 21.1265 12.3657C21.1693 11.8473 21.0656 11.32 20.816 10.8474L19.5875 8.52193C19.4407 8.24396 19.0271 8.29944 18.9587 8.60625L18.3526 11.3241C18.3017 11.5525 18.3506 11.7917 18.4869 11.9819L19.4839 13.3718L20.5116 13.2973Z" fill="#4A80AA"/>
<path d="M20.8159 10.8475L19.5875 8.52198C19.4407 8.24402 19.0271 8.29949 18.9587 8.6063L18.7368 9.60129L19.427 10.9078C19.8327 11.6758 19.8519 12.5882 19.4838 13.3719L19.903 13.9563C20.0766 14.1984 20.4454 14.1693 20.5789 13.9028L20.8432 13.3753C21.2428 12.5776 21.2326 11.6362 20.8159 10.8475Z" fill="#407093"/>
<path d="M21.3252 27C23.0844 27 24.5105 25.5739 24.5105 23.8147C24.5105 22.0556 23.0844 20.6295 21.3252 20.6295C19.566 20.6295 18.14 22.0556 18.14 23.8147C18.14 25.5739 19.566 27 21.3252 27Z" fill="#B3E59F"/>
<path d="M23.193 21.2352C23.5737 21.76 23.7987 22.405 23.7987 23.1029C23.7987 24.8621 22.3726 26.2882 20.6135 26.2882C19.9155 26.2882 19.2705 26.0631 18.7457 25.6824C19.3245 26.4805 20.264 27 21.3252 27C23.0844 27 24.5105 25.5739 24.5105 23.8148C24.5105 22.7535 23.9911 21.8141 23.193 21.2352Z" fill="#95D6A4"/>
<path d="M20.9673 25.0129C20.8594 25.0129 20.7558 24.97 20.6795 24.8937L19.8685 24.0827C19.7096 23.9238 19.7096 23.6661 19.8685 23.5072C20.0274 23.3483 20.2851 23.3483 20.444 23.5072L20.9673 24.0304L22.3033 22.6943C22.4622 22.5355 22.7199 22.5355 22.8788 22.6943C23.0378 22.8532 23.0378 23.1109 22.8788 23.2699L21.255 24.8937C21.1787 24.97 21.0752 25.0129 20.9673 25.0129Z" fill="#F2FBFF"/>
<path d="M12.2153 22.4157C12.3453 21.9771 12.0166 21.5369 11.5591 21.5369C11.1093 21.5369 10.7819 21.1105 10.8979 20.6759L10.9417 20.5121C11.0578 20.0776 10.7302 19.6512 10.2805 19.6512H10.1889C9.75153 19.6512 9.42643 19.2466 9.5205 18.8195L9.56907 18.599C9.6632 18.172 9.33804 17.7674 8.90072 17.7674H7.94707L7.19302 20.2733C6.97301 21.0044 6.86127 21.7637 6.86127 22.5272V23.0801C6.86127 23.23 6.98271 23.3515 7.13259 23.3515H11.938L12.2153 22.4157Z" fill="#F9F6F6"/>
<path d="M19.1377 16.9414L20.5218 17.132C20.7444 17.1626 20.9498 17.0071 20.9804 16.7844C21.0111 16.5618 20.8554 16.3564 20.6328 16.3257L19.2487 16.1351C18.4794 16.0291 17.7068 16.1587 17.0127 16.5102L16.1586 16.9472C15.9893 17.0339 15.8854 17.2127 15.8938 17.4028C15.9023 17.5928 16.0216 17.7617 16.1982 17.8331L17.1474 18.2166C17.559 18.3788 17.9248 18.6453 18.2054 18.9872L18.6784 19.5637C18.7589 19.6618 18.8756 19.7125 18.9933 19.7125C19.0841 19.7125 19.1755 19.6823 19.2512 19.6202C19.425 19.4777 19.4502 19.2213 19.3077 19.0474L18.8347 18.471C18.6477 18.2431 18.4317 18.0409 18.1942 17.8692C18.5174 17.9409 18.8281 18.0648 19.1136 18.2382L20.3273 18.9757C20.3933 19.0159 20.4663 19.0349 20.5382 19.0349C20.6757 19.0349 20.8098 18.9653 20.8864 18.8392C21.0031 18.6471 20.9421 18.3968 20.75 18.2801L19.5362 17.5427C19.0609 17.2538 18.5303 17.0729 17.9815 17.0091C18.3562 16.9116 18.7474 16.8878 19.1377 16.9414Z" fill="#4A80AA"/>
</svg>
