<svg width="24" height="22" viewBox="0 0 24 22" fill="none" xmlns="http://www.w3.org/2000/svg">
<path d="M24 7.91172C24.0004 8.31815 23.9783 8.72429 23.9338 9.12827C23.4 14.1765 19.531 19.4855 12 21.931C4.48137 19.4979 0.599994 14.2055 0.0662009 9.12827C0.0215694 8.7243 -0.000533732 8.31815 -6.02999e-06 7.91172C-6.02999e-06 3.89793 2.44965 0.413791 5.99999 0.413791C7.15629 0.411549 8.29901 0.662975 9.34758 1.15034L15.2979 0.885515C16.1641 0.571473 17.0786 0.411812 18 0.413791C21.5503 0.413791 24 3.89793 24 7.91172Z" fill="#DF4D60"/>
<path d="M24 7.91172C24.0004 8.31815 23.9783 8.72429 23.9338 9.12827C22.4524 12.9352 17.669 15.7241 12 15.7241C6.33103 15.7241 1.54758 12.9352 0.0662009 9.12827C0.0215694 8.7243 -0.000533732 8.31815 -6.02999e-06 7.91172C-6.02999e-06 3.89793 2.44965 0.413791 5.99999 0.413791C7.15629 0.411549 8.29901 0.662975 9.34758 1.15034L15.2979 0.885515C16.1641 0.571473 17.0786 0.411812 18 0.413791C21.5503 0.413791 24 3.89793 24 7.91172Z" fill="#FF5364"/>
<path d="M21.2069 15.749C19.4725 17.957 17.2312 19.7143 14.6731 20.8717C14.4248 20.9917 14.1724 21.1076 13.9159 21.211C13.3076 21.4759 12.6662 21.7159 12 21.931C11.7186 21.84 11.4414 21.7448 11.1724 21.6455V17.3793C10.1374 16.2462 9.5492 14.7757 9.51723 13.2414C9.53986 11.7794 9.91459 10.3444 10.6096 9.05793C10.6565 8.95632 10.659 8.83981 10.6167 8.73625C10.5743 8.63268 10.4908 8.55136 10.3862 8.51172C9.18235 8.09543 7.91923 7.87606 6.64551 7.86207C4.66344 7.2 4.52689 5.21793 4.55585 4.44828C4.56166 4.26505 4.68836 4.10794 4.8662 4.06345L7.2662 3.46759C7.66606 3.36613 8.01405 3.11989 8.24275 2.77655L9.21517 1.32C9.25568 1.26071 9.29991 1.20405 9.34758 1.15034C9.55299 0.911707 9.82322 0.737783 10.1255 0.649655C11.2788 0.286409 12.4728 0.0681786 13.68 0C14.3255 0.035358 14.9202 0.360897 15.2979 0.885517C16.1596 2.06871 16.6088 3.50217 16.5765 4.96552C16.5765 6.02483 16.1214 6.6331 15.4965 6.91862V6.9269L15.6165 7.75862L15.7076 8.39586C15.7301 8.5598 15.8494 8.69387 16.0096 8.73517C16.705 8.97205 17.3278 9.38387 17.8179 9.93103C18.5834 10.6924 20.1269 13.1793 21.2069 15.749Z" fill="#35495E"/>
<path d="M15.6166 7.75862C15.2892 7.88461 14.9411 7.94778 14.5903 7.94483C14.1383 7.94182 13.6907 7.85483 13.2703 7.68828C12.7996 7.49774 12.4906 7.04164 12.4883 6.5338V3.72414C12.4883 3.49561 12.6735 3.31035 12.9021 3.31035C13.1306 3.31035 13.3159 3.49561 13.3159 3.72414V6.5338C13.3157 6.70337 13.419 6.85588 13.5766 6.91862C14.1554 7.16785 14.8087 7.18122 15.3972 6.95587C15.4289 6.94188 15.4623 6.93214 15.4966 6.9269L15.6166 7.75862Z" fill="#2C3E50"/>
<path d="M18.6 16.6841C18.5253 16.8999 18.2914 17.0159 18.0745 16.9448C17.2964 16.6408 16.418 16.7448 15.7324 17.2221C14.9249 17.8574 14.4622 18.8348 14.4828 19.8621C14.4763 20.2081 14.5411 20.5518 14.6731 20.8717C14.4248 20.9917 14.1724 21.1076 13.9159 21.211C13.7386 20.7836 13.6499 20.3247 13.6552 19.8621C13.6361 18.5695 14.2262 17.3432 15.2483 16.5517C16.151 15.9197 17.3071 15.7727 18.3393 16.1586C18.555 16.2333 18.6711 16.4672 18.6 16.6841Z" fill="#2C3E50"/>
<path d="M6.2069 3.73241V4.96552C6.2069 5.19405 6.02164 5.37931 5.79311 5.37931H4.6138C4.56354 5.07167 4.54414 4.75978 4.55587 4.44828C4.56167 4.26505 4.68838 4.10794 4.86621 4.06345L6.2069 3.73241Z" fill="#3F5C6C"/>
</svg>
